# xmcd
#
# Track frame offsets: 
#        150
#        20395
#        44958
#        66157
#        87292
#        110569
#
# Disc length: 1733 seconds
#
# Revision: 0
# Processed by: cddbd v1.5.2PL0 Copyright (c) Steve Scherf et al.
# Submitted via: ExactAudioCopy v0.99pb5
#
DISCID=5006c306
DTITLE=Sacha Vee - Sacha Vee
DYEAR=2010
DGENRE=Soul
TTITLE0=Trouble
TTITLE1=Patience
TTITLE2=Break it Down
TTITLE3=Honey Bee
TTITLE4=3 PM
TTITLE5=Wanna Rely
EXTD=
EXTT0=
EXTT1=
EXTT2=
EXTT3=
EXTT4=
EXTT5=
PLAYORDER=
